<?xml version="1.0" standalone="no"?>
<!DOCTYPE svg PUBLIC "-//W3C//DTD SVG 20010904//EN"
 "http://www.w3.org/TR/2001/REC-SVG-20010904/DTD/svg10.dtd">
<svg version="1.0" xmlns="http://www.w3.org/2000/svg"
 width="500.000000pt" height="500.000000pt" viewBox="0 0 500.000000 500.000000"
 preserveAspectRatio="xMidYMid meet">
<metadata>
Created by potrace 1.14, written by Peter Selinger 2001-2017
</metadata>
<g transform="translate(0.000000,500.000000) scale(0.100000,-0.100000)"
fill="#000000" stroke="none">
<path d="M1670 4219 c-92 -17 -85 -11 -83 -86 0 -37 2 -109 2 -160 l1 -92 73
0 c90 -1 122 -7 167 -32 73 -42 99 -92 291 -565 l69 -170 -126 -330 c-69 -181
-137 -358 -150 -394 -14 -36 -29 -74 -34 -85 -5 -11 -39 -99 -75 -195 -36 -96
-70 -184 -75 -195 -8 -19 -268 -698 -330 -865 -16 -41 -46 -121 -68 -178 l-40
-102 236 2 236 3 89 245 c49 135 92 254 97 265 5 11 28 72 50 135 23 63 46
124 50 135 5 11 20 54 35 95 14 41 31 86 37 100 5 14 37 99 70 190 78 216 131
359 163 445 15 39 30 82 35 97 18 59 27 64 40 22 7 -21 18 -52 25 -69 8 -16
80 -201 160 -410 81 -209 162 -418 180 -465 19 -47 70 -179 114 -294 45 -114
95 -234 112 -265 90 -163 170 -229 312 -256 96 -19 314 -11 337 11 4 5 2 166
-5 269 -2 28 -4 57 -4 65 -1 12 -14 14 -65 12 -118 -6 -184 43 -236 175 -13
32 -29 72 -36 88 -7 17 -54 138 -104 270 -103 268 -207 540 -220 570 -5 11
-54 139 -110 285 -55 146 -105 274 -110 285 -5 11 -106 274 -225 585 -119 311
-231 589 -248 619 -67 114 -170 190 -304 227 -67 18 -267 26 -333 13z"/>
</g>
</svg>
