<?xml version="1.0" standalone="no"?>
<!DOCTYPE svg PUBLIC "-//W3C//DTD SVG 20010904//EN"
 "http://www.w3.org/TR/2001/REC-SVG-20010904/DTD/svg10.dtd">
<svg version="1.0" xmlns="http://www.w3.org/2000/svg"
 width="1284.000000pt" height="1284.000000pt" viewBox="0 0 1284.000000 1284.000000"
 preserveAspectRatio="xMidYMid meet">
<metadata>
Created by potrace 1.14, written by Peter Selinger 2001-2017
</metadata>
<g transform="translate(0.000000,1284.000000) scale(0.100000,-0.100000)"
fill="#000000" stroke="none">
<path d="M499 12626 c0 -94 -2 -652 -4 -1241 -23 -6221 -23 -6195 -1 -6360 3
-17 7 -53 10 -80 9 -78 46 -281 68 -375 11 -47 21 -93 23 -102 2 -10 17 -68
34 -130 135 -504 370 -1016 689 -1501 37 -56 70 -106 74 -112 4 -5 58 -77 119
-160 62 -82 120 -159 130 -170 10 -11 59 -69 111 -130 178 -211 429 -465 633
-640 44 -38 82 -71 85 -74 3 -3 28 -24 55 -46 28 -22 57 -46 65 -52 321 -265
795 -567 1215 -773 339 -167 702 -310 1010 -398 39 -11 102 -29 140 -40 86
-25 358 -87 442 -102 35 -5 75 -13 90 -16 69 -13 295 -44 363 -49 41 -3 84 -8
95 -10 109 -23 768 -23 1065 0 116 9 284 28 340 40 14 3 45 7 70 10 25 3 88
14 140 25 52 10 106 21 120 24 38 6 256 62 362 91 194 55 510 168 685 246 27
11 57 25 68 29 11 5 85 40 165 78 997 479 1873 1230 2474 2121 82 121 159 241
165 256 2 6 12 21 21 35 9 14 32 52 51 85 18 33 43 78 55 100 39 70 170 337
209 425 20 47 40 94 45 105 85 187 241 679 274 859 3 15 7 34 10 44 3 9 7 28
10 42 2 14 13 75 25 135 11 61 23 130 26 155 6 51 13 99 22 156 6 41 12 7641
6 7660 -3 8 -1594 11 -5929 11 l-5924 0 -1 -171z"/>
</g>
</svg>
